# xmcd CD database file
#
# Track frame offsets:
#	150
#	21007
#	35745
#	52322
#	70412
#	94620
#	115970
#	132277
#	150325
#	173682
#	188395
#	206950
#
# Disc length: 3024 seconds
#
# Revision: 2
# Processed by: cddbd v1.5.2PL0 Copyright (c) Steve Scherf et al.
# Submitted via: CDex 1.70beta2
#
DISCID=a30bce0c
DTITLE=Various Artist - 中島みゆき SONG LIBRARY 5
DYEAR=1997
DGENRE=Pop
TTITLE0=激情／歌：工藤静香
TTITLE1=カム・フラージュ／歌：柏原芳恵
TTITLE2=くらやみ乙女／歌：佐田玲子
TTITLE3=ほうせんか／歌：真璃子
TTITLE4=鳥になって／歌：香坂みゆき
TTITLE5=あどけない話／歌：吉田日出子
TTITLE6=うそつきが好きよ／歌：日吉ミミ
TTITLE7=さよならの鐘／歌：グラシェラ・スサーナ
TTITLE8=未完成／歌：薬師丸ひろ子
TTITLE9=笑わせるじゃないか／歌：山内恵美子
TTITLE10=私について／歌：工藤静香
TTITLE11=かもめはかもめ／歌：研ナオコ
EXTD=YEAR: 1997
EXTT0=
EXTT1=
EXTT2=
EXTT3=
EXTT4=
EXTT5=
EXTT6=
EXTT7=
EXTT8=
EXTT9=
EXTT10=
EXTT11=
PLAYORDER=
